<svg xmlns="http://www.w3.org/2000/svg" viewBox="0 0 119.06 119.06"><defs><style>.cls-1{fill:#fff;}.cls-2{fill:#ffe55f;}.cls-3{fill:#231815;}.cls-4{fill:#dc2217;}.cls-5{fill:#e94f6e;}.cls-6{fill:#ef8b9d;}.cls-7{fill:#66a431;}</style></defs><g id="레이어_2" data-name="레이어 2"><g id="_5번_도안_도무송" data-name="5번 도안 도무송"><circle class="cls-1" cx="59.53" cy="59.53" r="59.53"/><path class="cls-2" d="M54.6,56.94a3,3,0,0,0-.43-1.51,3.05,3.05,0,0,0-1.12-1.08,3.34,3.34,0,0,0-3.12,0,3,3,0,0,0-.82.63,3.35,3.35,0,0,0-.64.9,7.85,7.85,0,0,0-.55,1.61,5.91,5.91,0,0,0-.11,2.05,4,4,0,0,0,1.08,2.25A4.43,4.43,0,0,0,52.27,63a9.67,9.67,0,0,0,2.66-.53,5.79,5.79,0,0,0,1.89-1.1,4.13,4.13,0,0,0,.66-.79c.06-.09.1-.18.15-.27a5.85,5.85,0,0,0,.33-.82,5.2,5.2,0,0,0-.78-4A6.09,6.09,0,0,0,54.59,53a3.62,3.62,0,0,0-3.1.13,4.17,4.17,0,0,0-1.58,1.54,5.24,5.24,0,0,0-.66,1.65,7.79,7.79,0,0,1-.35,1.23l.26-.6a3.3,3.3,0,0,1-.26.45l.39-.51a2.2,2.2,0,0,1-.2.23,2.5,2.5,0,0,0,1.77,4.26,2.66,2.66,0,0,0,1.77-.73,5.1,5.1,0,0,0,1.26-2.24,11,11,0,0,1,.39-1.42l-.26.59a3.16,3.16,0,0,1,.33-.56l-.39.51a2.13,2.13,0,0,1,.33-.34l-.5.39a1.56,1.56,0,0,1,.28-.16l-.59.25a1,1,0,0,1,.25-.06l-.67.09h.28l-.66-.09a1.31,1.31,0,0,1,.28.09l-.59-.25a1.55,1.55,0,0,1,.32.2l-.51-.4a3.29,3.29,0,0,1,.54.58l-.39-.51a6.64,6.64,0,0,1,.89,1.46l-.25-.6a3,3,0,0,1,.2.71l-.09-.66a1.85,1.85,0,0,1,0,.47c0-.22.06-.45.08-.67a1.64,1.64,0,0,1-.1.38l.25-.6a1.77,1.77,0,0,1-.19.33l.39-.5a1.77,1.77,0,0,1-.31.3l.51-.39a3.2,3.2,0,0,1-.57.32l.6-.25A7.69,7.69,0,0,1,52,58l.66-.09a4,4,0,0,1-1,0l.66.09a2.93,2.93,0,0,1-.51-.13l.6.25a1.35,1.35,0,0,1-.33-.19l.5.39a1.67,1.67,0,0,1-.23-.23l.39.51a2.23,2.23,0,0,1-.2-.33l.25.59a2.24,2.24,0,0,1-.1-.37l.09.66a3,3,0,0,1,0-.73c0,.23-.05.45-.08.67A5.5,5.5,0,0,1,53,57.83l-.25.6a1.58,1.58,0,0,1,.21-.38l-.39.51a1,1,0,0,1,.2-.2l-.51.39a.7.7,0,0,1,.17-.09l-.6.25.17,0-.67.09h.23l-.66-.09.16,0-.59-.25.14.08-.5-.39.11.11L49.86,58a.41.41,0,0,1,0,.09l-.25-.59a.3.3,0,0,1,0,.1c0-.22-.06-.44-.08-.67v.06a2.66,2.66,0,0,0,.73,1.77,2.57,2.57,0,0,0,1.77.73,2.53,2.53,0,0,0,1.77-.73,2.46,2.46,0,0,0,.73-1.77Z"/><path class="cls-2" d="M67.45,54.91l-.1,0a4.19,4.19,0,0,0-.71-.1,3.66,3.66,0,0,0-.81.09l-.19.06a3.31,3.31,0,0,0-1,.53,2.79,2.79,0,0,0-.85.95,3.11,3.11,0,0,0-.29,2.2,3,3,0,0,0,1.57,2,2.94,2.94,0,0,0,.75.3,3.33,3.33,0,0,0,1.44,0,1.06,1.06,0,0,0,.19-.06,3.21,3.21,0,0,0,1-.51,3.29,3.29,0,0,0,.85-.93,3.62,3.62,0,0,0,.4-1A6,6,0,0,0,69.9,57a4.05,4.05,0,0,0-.46-2,2.86,2.86,0,0,0-.84-1,2.09,2.09,0,0,0-.39-.27,3.09,3.09,0,0,0-1.42-.39,3.39,3.39,0,0,0-1.66.4,3.12,3.12,0,0,0-.91.66,13.77,13.77,0,0,0-1.07,1.47l.39-.5c-.33.42-.69.8-1,1.24a3.49,3.49,0,0,0-.61,2,4,4,0,0,0,2.94,3.62,7.44,7.44,0,0,0,1.15.18l.6,0h.49a6.09,6.09,0,0,0,.85-.13,5.24,5.24,0,0,0,.65-.27l.16-.1a3.31,3.31,0,0,0,1.09-1.17,10.52,10.52,0,0,0,.43-1.05,7.36,7.36,0,0,0,.35-1.8,4.31,4.31,0,0,0-.53-2.28,3,3,0,0,0-.32-.45,3.54,3.54,0,0,0-.35-.42A3.92,3.92,0,0,0,68,54a1.89,1.89,0,0,0-1,0,1.85,1.85,0,0,0-.93.29,2.56,2.56,0,0,0-1.14,1.5,2.48,2.48,0,0,0,.25,1.92l.39.51a2.5,2.5,0,0,0,1.1.64l0,0-.59-.25.24.14-.51-.39a1.36,1.36,0,0,1,.24.24l-.39-.5a1.48,1.48,0,0,1,.19.35l-.25-.6a2.12,2.12,0,0,1,.12.45l-.09-.67a2.72,2.72,0,0,1,0,.57l.09-.67a6.14,6.14,0,0,1-.4,1.39l.25-.6a1.23,1.23,0,0,1-.14.25l.39-.51-.08.09.5-.4a.78.78,0,0,1-.15.1l.6-.25-.24.06.66-.09a5.75,5.75,0,0,1-1.17,0l.67.09a3.2,3.2,0,0,1-.61-.15l.59.25a2,2,0,0,1-.37-.22l.5.4a2.13,2.13,0,0,1-.3-.3l.39.5a2,2,0,0,1-.14-.25l.25.59a1.29,1.29,0,0,1-.08-.28l.09.67a1,1,0,0,1,0-.24l-.09.67a1.29,1.29,0,0,1,.08-.28l-.26.6a2.47,2.47,0,0,1,.27-.44l-.39.5c.31-.38.64-.74.94-1.14s.35-.56.55-.82l-.4.5a1.64,1.64,0,0,1,.27-.26l-.51.39a1.43,1.43,0,0,1,.27-.15l-.6.25a1,1,0,0,1,.23-.06l-.66.09h.17l-.67-.09.17.05-.6-.26.14.09-.51-.39.11.1L65,57.38l.1.17L64.88,57a1.32,1.32,0,0,1,.09.3l-.09-.67a3.1,3.1,0,0,1,0,.86l.09-.67a2.28,2.28,0,0,1-.15.57l.25-.6a1.28,1.28,0,0,1-.15.25l.39-.5a.74.74,0,0,1-.13.12l.51-.39-.12.07.59-.25a.6.6,0,0,1-.19.06l.66-.09h-.1l.66.09a.47.47,0,0,1-.16,0l.6.26-.14-.08.5.39-.15-.15.39.5a.5.5,0,0,1-.08-.14l.25.6a.94.94,0,0,1,0-.16l.09.66a.34.34,0,0,1,0-.1c0,.22,0,.44-.08.66a.32.32,0,0,1,0-.14l-.25.59.07-.13-.39.51.14-.14-.51.39.13-.08-.59.25.19,0-.67.09h.15L66,59.69l.14,0a1.89,1.89,0,0,0,1,.05,2,2,0,0,0,.93-.3,2.49,2.49,0,0,0,.89-3.42l-.39-.51a2.5,2.5,0,0,0-1.1-.64Z"/><path class="cls-2" d="M56.86,59.49l0-.06.25.6v1.26l0-.07-.26.6,0-.07-.39.51.06-.06-.51.39a.59.59,0,0,1,.17-.1l-.6.25a1.32,1.32,0,0,1,.33-.08l-.66.09a26.29,26.29,0,0,1,6.75,0l-.67-.09.45.07a2.73,2.73,0,0,0,1.92-.26,2.5,2.5,0,0,0-.59-4.57,29.36,29.36,0,0,0-5.54-.34,27.25,27.25,0,0,0-3,.29,3,3,0,0,0-1.66.89,2.76,2.76,0,0,0-.75,1.56A2.5,2.5,0,0,0,52.54,62,2.75,2.75,0,0,0,54,63.17a2.52,2.52,0,0,0,3.08-1.75,2.46,2.46,0,0,0-.25-1.93Z"/><path class="cls-2" d="M56.2,60.22c-3.53,3.31-7.08,7.1-7.28,12.22a5.11,5.11,0,0,0,1.21,3.87,4,4,0,0,0,3.86,1,5.36,5.36,0,0,0,3-2.09,13.72,13.72,0,0,0,.86-1.37,7.06,7.06,0,0,1,.42-.69c.24-.37-.05,0,.29-.31l-4.27-1.77c.16,1.46.32,2.91.49,4.37s1.47,3,3.16,2.41a8.55,8.55,0,0,0,3.68-2.54c.4-.43.79-.88,1.22-1.29l.32-.29c-.35.31,0,0,.09-.06l.36-.21c.33-.17-.53.17.1,0l-3.08-1.75a18.86,18.86,0,0,1,.52,3.49,2.53,2.53,0,0,0,1.53,2.29A2.47,2.47,0,0,0,65.41,77,21.54,21.54,0,0,1,67.17,75l.86-.77.43-.35c.07-.06.35-.06-.07,0H67.06c-.8-1.15-1.14-1.44-1-.84,0,.14.06.28.08.42a5.46,5.46,0,0,0,.45,1.12,2.54,2.54,0,0,0,2.83,1.15,2.61,2.61,0,0,0,1.83-2.41,20.73,20.73,0,0,0-3.42-13.07,2.54,2.54,0,0,0-4.31,0,50.38,50.38,0,0,0-4.17,7.63L64,69.18l.63-7.46a2.51,2.51,0,0,0-1.83-2.41A2.58,2.58,0,0,0,60,60.46q-1.32,2-2.66,4l-1.13,1.71-.76,1.14c0,.06-.46.71-.27.38-.26.23-.24.24.07,0,.58-.42,1.21-.27,1.9.45.1,0,0,.58,0-.12,0-.18,0-.19,0,0a5.52,5.52,0,0,1,.16-.54c-.1.24.26-.41.25-.4a6.41,6.41,0,0,1,1.22-1.23c.64-.52-.21.14.46-.35l.49-.35c.25-.19.29-.2.11-.05H58.55a1.67,1.67,0,0,1-1-.89c.06.26.06.29,0,.11a9.24,9.24,0,0,0,.1,1.17c.06.84.1,1.68.11,2.52,0,1.74.26,3.61,1.89,4.61a4.43,4.43,0,0,0,4.64-.09,5.32,5.32,0,0,0,1.75-1.87,9,9,0,0,0,.61-1.34l.18-.51c.22-.57,0-.39-.54.53l-1.26.34h.2L64,69.33a.54.54,0,0,1-.22-.23c0,.19.28.42.36.6.17.38-.06-.23,0,.18.06.23.1.45.14.68a2.51,2.51,0,0,0,3.07,1.75,2.56,2.56,0,0,0,1.75-3.08c-.26-1.63-1.29-3.72-2.92-4.34a2.93,2.93,0,0,0-3.26.8,4.24,4.24,0,0,0-.8,1.42c-.06.16-.12.33-.17.5s-.24.53-.12.29c-.06.13-.3.7-.15.35,0-.09-.19,0-.05,0l.3,0c-.58.07.27.08.41.17s.24.31.44.57c-.05-.07-.05-.47,0-.11,0-.18,0-.36,0-.53A22.9,22.9,0,0,0,62.42,63c-.59-2.21-2.83-3.55-5-2.31a13.06,13.06,0,0,0-3.94,3.53,6.54,6.54,0,0,0-1.2,5.18,3.72,3.72,0,0,0,4.48,3c2-.54,3-2.69,4.08-4.28L64.3,63l-4.66-1.26L59,69.18c-.2,2.42,3.62,3.47,4.66,1.26a49.85,49.85,0,0,1,4.16-7.63H63.52a16.07,16.07,0,0,1,2.73,10.54l4.66-1.26c.11.21,0-.17,0-.21a2.76,2.76,0,0,0-.25-.8,3.37,3.37,0,0,0-1.28-1.58,3.19,3.19,0,0,0-3.47.09,18.27,18.27,0,0,0-4,3.82l4.27,1.77a27.07,27.07,0,0,0-.7-4.82,2.52,2.52,0,0,0-3.07-1.74,8.17,8.17,0,0,0-3.69,2.49c-.41.43-.79.89-1.22,1.3l-.32.3c-.46.44.22-.12-.08.06L56.7,73c-.31.18.54-.17-.09,0l3.17,2.41c-.17-1.46-.33-2.91-.49-4.37a2.57,2.57,0,0,0-1.54-2.29,2.53,2.53,0,0,0-2.73.52,9.36,9.36,0,0,0-1.55,2.14,9.39,9.39,0,0,1-.56.92c-.22.3.18-.11-.08.07s.31-.13,0,0,.3,0,0,0,.31,0,.39,0,.87.62.76.68A8.51,8.51,0,0,0,54,72c0,.25,0-.15,0-.19.05-.24.11-.47.17-.7.81-2.92,3.29-5.2,5.59-7.35a2.5,2.5,0,0,0-3.54-3.54Z"/><path class="cls-2" d="M56.48,65.93V62a2.51,2.51,0,0,0-2.5-2.5,2.54,2.54,0,0,0-1.77.74A2.59,2.59,0,0,0,51.48,62v4a2.51,2.51,0,0,0,2.5,2.5,2.54,2.54,0,0,0,1.77-.74,2.59,2.59,0,0,0,.73-1.76Z"/><path class="cls-3" d="M56.29,58a13.77,13.77,0,0,1,4.13-.56.74.74,0,0,0,.65-.38A6.2,6.2,0,0,1,63.86,54c1.33-.7,3.66-1.29,4.53.33a7.26,7.26,0,0,1,.67,4.53c-.26,1.23-1.56,2-1.67,3.19a2.39,2.39,0,0,0,.36,1.32,13.66,13.66,0,0,1,1.09,2.44,19.57,19.57,0,0,1,.71,4.88,7,7,0,0,1-1,4.69c-1,1.21-3.26,1.82-3.94,0a.76.76,0,0,0-1.26-.32A4,4,0,0,0,62.41,77c-.62,2.13-2.09.25-2.57-.89a.76.76,0,0,0-1.26-.32,7.46,7.46,0,0,1-2.21,1.94c-.54.23-.42.18-.59-.41s-.26-1.14-.39-1.7a.76.76,0,0,0-1.26-.32c-.5.48-.83,1.06-1.28,1.58-.89,1-1.74.39-2.28-.6a11.6,11.6,0,0,1-1.12-5.38,16.4,16.4,0,0,1,1.23-5.69c.43-1.18.43-2.48-.8-3.16s-2.61-.45-3.36-2a5.41,5.41,0,0,1,0-4.39c.65-1.56,2.09-3.09,3.94-2.79s3.1,2,3.75,3.6c.37.88,1.81.48,1.44-.42-1.1-2.66-3.6-5.39-6.77-4.57-2.91.75-4.53,4.18-4.28,7A5.53,5.53,0,0,0,46.05,62a4.06,4.06,0,0,0,1.6,1c.88.29,2.1.21,1.72,1.5A24.47,24.47,0,0,0,48,70a15,15,0,0,0,.71,5.58C49.15,77,50,78.73,51.62,79c1.84.26,2.49-1.56,3.58-2.61L54,76c.25,1.1.31,3.48,1.9,3.47,1.41,0,2.94-1.69,3.81-2.66l-1.26-.31C59,78,60,79.74,61.91,79.5a2.11,2.11,0,0,0,1.58-1.1c.41-.72.31-1.69.9-2.29l-1.26-.32A3.66,3.66,0,0,0,69.07,77c2.51-2.2,2.15-6.14,1.73-9.12a13.81,13.81,0,0,0-1.38-4.61c-.31-.59-.51-1-.15-1.64.14-.25.4-.46.56-.71a5.41,5.41,0,0,0,.75-2c.37-2.35-.31-6.38-3.06-7-3.18-.69-6.51,1.59-7.76,4.41l.65-.38a15.38,15.38,0,0,0-4.53.61A.75.75,0,0,0,56.29,58Z"/><path class="cls-3" d="M71.56,70.6a3.67,3.67,0,0,0,1.56-2A.71.71,0,0,0,73,68a.7.7,0,0,0-.45-.34.77.77,0,0,0-.92.53,2.09,2.09,0,0,1-.08.23l.07-.18a3.09,3.09,0,0,1-.36.64l.11-.16a3.2,3.2,0,0,1-.51.53l.15-.12-.26.18a.81.81,0,0,0-.34.45.78.78,0,0,0,.08.58.76.76,0,0,0,.45.34.83.83,0,0,0,.58-.08Z"/><path class="cls-3" d="M55.19,64.28a.75.75,0,0,0,0-1.5.75.75,0,0,0,0,1.5Z"/><path class="cls-3" d="M63.19,64.28a.75.75,0,0,0,0-1.5.75.75,0,0,0,0,1.5Z"/><path class="cls-3" d="M56.91,64.33a1.93,1.93,0,0,0,.78,1.82,1.27,1.27,0,0,0,1.09.1c.1,0,.19-.08.29-.12s-.15.05,0,0-.13,0,0,0,.07,0,0,0l.08,0,.17,0,.09,0c-.09,0-.09,0,0,0l.46.19a2,2,0,0,0,.72.11,1.35,1.35,0,0,0,1.33-1,.75.75,0,1,0-1.45-.38s0,.14,0,0,0-.07,0,0l.07-.1c-.09.1.12-.08.05,0s0,0,.06,0l-.11,0c-.1,0,.05,0,.07,0a.54.54,0,0,0-.22,0h0l-.08,0-.15,0c.06,0,.08,0,0,0a3.64,3.64,0,0,0-.72-.26,1.67,1.67,0,0,0-.86,0l-.26.11s-.17.08-.07,0-.07,0-.07,0,.26,0,.16,0,.14.1,0,0c.07.05.09.06,0,0s.07.12,0,0,0,.09,0,0-.05-.11,0-.16c0,.11,0,.06,0,0s0-.24,0-.36a.75.75,0,0,0-1.5,0Z"/><path class="cls-3" d="M45.11,96.38c0,.08,0,.16,0,.26a1,1,0,0,0,.07.22.38.38,0,0,0,.24.22.42.42,0,0,0,.27-.06,1.07,1.07,0,0,0,.23-.2.85.85,0,0,0,.14-.22,1.64,1.64,0,0,0,.1-.41,3.4,3.4,0,0,0,0-.45,3.14,3.14,0,0,0,0-.45,2.26,2.26,0,0,0-.09-.41,2.36,2.36,0,0,0-.5-1,2.44,2.44,0,0,0-.81-.62,2.48,2.48,0,0,0-1-.23,2.92,2.92,0,0,0-1.08.18,2.57,2.57,0,0,0-1,.6,2.46,2.46,0,0,0-.55.88A2.68,2.68,0,0,0,41,95.78a3.56,3.56,0,0,0,.26,1.13,2.6,2.6,0,0,0,.43.72,2.65,2.65,0,0,0,.63.52,3.4,3.4,0,0,0,.76.32,3.46,3.46,0,0,0,.84.11h.35a2.1,2.1,0,0,1,.44,0,.68.68,0,0,1,.34.16c.08.08.09.2,0,.38a.46.46,0,0,1-.29.27,2.09,2.09,0,0,1-.48.14,4.73,4.73,0,0,1-.53,0h-.42a4.34,4.34,0,0,1-1.51-.32,3.07,3.07,0,0,1-1.22-.93A4.18,4.18,0,0,1,39.93,97a4.52,4.52,0,0,1-.18-1.53,8.27,8.27,0,0,1,.14-.82,4.56,4.56,0,0,1,.28-.81,3.54,3.54,0,0,1,.45-.71,2.54,2.54,0,0,1,.62-.56,4.24,4.24,0,0,1,.9-.46,4.75,4.75,0,0,1,1-.23,4.53,4.53,0,0,1,1,0,3.8,3.8,0,0,1,1.06.32,3.5,3.5,0,0,1,1,.65,3.29,3.29,0,0,1,.68.9,3.49,3.49,0,0,1,.35,1.09,5,5,0,0,1,0,1.23,3.12,3.12,0,0,1-.34,1.1,2.17,2.17,0,0,1-.8.85l-.22.11a.82.82,0,0,1-.28,0,.94.94,0,0,1-.32,0A1.25,1.25,0,0,1,45,98a1.21,1.21,0,0,1-.19-.2,1.43,1.43,0,0,1-.15-.22l-.09-.18,0-.08-.1.14a1,1,0,0,1-.22.23.51.51,0,0,1-.21.09,1.08,1.08,0,0,1-.27.05l-.28,0-.24,0a1.84,1.84,0,0,1-.76-.34,1.74,1.74,0,0,1-.45-.53,1.81,1.81,0,0,1-.19-.65,2.72,2.72,0,0,1,0-.7,1.92,1.92,0,0,1,.34-.8,1.71,1.71,0,0,1,.6-.49,1.26,1.26,0,0,1,.71-.12,1.15,1.15,0,0,1,.68.35s0-.05,0-.09a.59.59,0,0,1,0-.13l0-.14,0-.09a.43.43,0,0,1,.24-.15.66.66,0,0,1,.28,0A.7.7,0,0,1,45,94a.33.33,0,0,1,.1.25ZM44,96.54a1.07,1.07,0,0,1,.07-.15.49.49,0,0,0,.06-.17.84.84,0,0,0-.08-.61.89.89,0,0,0-.4-.37.6.6,0,0,0-.49,0,.7.7,0,0,0-.38.46,1,1,0,0,0,0,.68.8.8,0,0,0,.34.4.69.69,0,0,0,.49.08A.66.66,0,0,0,44,96.54Z"/><path class="cls-3" d="M52.54,97.44c0,.21,0,.44,0,.69s0,.47,0,.69,0,.4,0,.6a4.19,4.19,0,0,1-.08.56,2.52,2.52,0,0,1-.17.57,1.77,1.77,0,0,1-.38.58,1.36,1.36,0,0,1-.62.36,3.41,3.41,0,0,1-.6.1,3.05,3.05,0,0,1-.6,0,2.16,2.16,0,0,1-.45-.12,2.31,2.31,0,0,1-.45-.21,1.85,1.85,0,0,1-.37-.31,1,1,0,0,1-.22-.39.93.93,0,0,1,0-.47.49.49,0,0,1,.2-.29.38.38,0,0,1,.33,0,.69.69,0,0,1,.36.31.92.92,0,0,0,.35.29,1.69,1.69,0,0,0,.49.13,1.24,1.24,0,0,0,.51-.07.69.69,0,0,0,.38-.29,1.08,1.08,0,0,0,.15-.43,3.51,3.51,0,0,0,.05-.55,2.07,2.07,0,0,1-1,.15,2,2,0,0,1-1-.33,2.07,2.07,0,0,1-.7-.74,1.85,1.85,0,0,1-.23-1,3.06,3.06,0,0,1,.22-1,1.7,1.7,0,0,1,.61-.75,2,2,0,0,1,.79-.32,5.12,5.12,0,0,1,.85-.07h.48a1.44,1.44,0,0,1,.43.06.8.8,0,0,1,.36.2.79.79,0,0,1,.24.41,3,3,0,0,1,.15.83C52.54,96.85,52.54,97.14,52.54,97.44Zm-1.93.83.2,0,.18,0a.64.64,0,0,0,.26-.16.49.49,0,0,0,.11-.23,1.12,1.12,0,0,0,0-.27c0-.1,0-.21,0-.31v-.29a1.55,1.55,0,0,0,0-.31.92.92,0,0,0-.06-.25.18.18,0,0,0-.12-.14,1.4,1.4,0,0,0-.32-.06,2.16,2.16,0,0,0-.36,0,1.86,1.86,0,0,0-.34.07,1.06,1.06,0,0,0-.28.15.85.85,0,0,0-.23.32,1.3,1.3,0,0,0-.09.4,1.42,1.42,0,0,0,0,.41,1,1,0,0,0,.16.36.84.84,0,0,0,.38.29A1.41,1.41,0,0,0,50.61,98.27Z"/><path class="cls-3" d="M57.05,99.29a.7.7,0,0,1,.35,0,.71.71,0,0,1,.31.16.34.34,0,0,1,.14.31.88.88,0,0,1,0,.21.37.37,0,0,1-.1.16.43.43,0,0,1-.2.11,1.11,1.11,0,0,1-.25,0l-.2,0H54.18a.76.76,0,0,1-.42-.15.5.5,0,0,1-.23-.37.5.5,0,0,1,.1-.28.45.45,0,0,1,.25-.18,1.29,1.29,0,0,1,.43-.07h2.74Z"/><path class="cls-3" d="M59.91,95.54c0,.18,0,.39,0,.63v1.46c0,.25,0,.47,0,.68a1.82,1.82,0,0,1,0,.32,1.14,1.14,0,0,1-.08.33.55.55,0,0,1-.18.24.51.51,0,0,1-.34.09.54.54,0,0,1-.44-.27,1.76,1.76,0,0,1-.16-.7v-.53c0-.2,0-.41,0-.61s0-.41,0-.61V95.7c0-.14,0-.27,0-.41s0-.28.05-.41a.86.86,0,0,1,.13-.32.46.46,0,0,1,.2-.13.86.86,0,0,1,.28,0,.66.66,0,0,1,.28,0,.35.35,0,0,1,.19.14.34.34,0,0,1,.06.17,1.5,1.5,0,0,1,0,.24c0,.09,0,.19,0,.28Zm-.38-2a.59.59,0,0,1-.51-.07.64.64,0,0,1-.26-.43.74.74,0,0,1,0-.37.51.51,0,0,1,.53-.32.61.61,0,0,1,.36.14.66.66,0,0,1,.25.28.49.49,0,0,1,0,.31.5.5,0,0,1-.14.27A.57.57,0,0,1,59.53,93.52Z"/><path class="cls-3" d="M63.18,97.57a1.35,1.35,0,0,0-.42-.19l-.48-.13-.48-.14a1.65,1.65,0,0,1-.42-.21,1.14,1.14,0,0,1-.47-.77,1.44,1.44,0,0,1,.19-.91,1.41,1.41,0,0,1,.37-.4,2.38,2.38,0,0,1,.51-.24,2.11,2.11,0,0,1,.56-.09,2.44,2.44,0,0,1,.55,0l.36.08a1.94,1.94,0,0,1,.36.15,1.29,1.29,0,0,1,.3.22.75.75,0,0,1,.19.34.43.43,0,0,1,0,.25.47.47,0,0,1-.1.2.52.52,0,0,1-.19.12.69.69,0,0,1-.25,0,1.31,1.31,0,0,1-.28-.09l-.26-.13a1.23,1.23,0,0,0-.26-.12.71.71,0,0,0-.29,0,.65.65,0,0,0-.38.08.47.47,0,0,0-.2.22.34.34,0,0,0,0,.28.57.57,0,0,0,.27.26,2.61,2.61,0,0,0,.42.16l.46.12a3.22,3.22,0,0,1,.44.14,1.28,1.28,0,0,1,.79.85,1.33,1.33,0,0,1,0,.71A1.47,1.47,0,0,1,64,99a1.51,1.51,0,0,1-.7.36,3,3,0,0,1-.62.06,3.7,3.7,0,0,1-.66-.07,2.69,2.69,0,0,1-.62-.22,1.74,1.74,0,0,1-.5-.38.57.57,0,0,1-.14-.37.73.73,0,0,1,.08-.36.49.49,0,0,1,.24-.21.38.38,0,0,1,.36.07l.38.21a3,3,0,0,0,.44.17,1.65,1.65,0,0,0,.43.06.65.65,0,0,0,.35-.09c.15-.1.23-.2.23-.33A.28.28,0,0,0,63.18,97.57Z"/><path class="cls-3" d="M69,99.29a.7.7,0,0,1,.35,0,.71.71,0,0,1,.31.16.34.34,0,0,1,.14.31.88.88,0,0,1,0,.21.37.37,0,0,1-.1.16.43.43,0,0,1-.2.11,1.11,1.11,0,0,1-.25,0l-.2,0H66.16a.76.76,0,0,1-.42-.15.5.5,0,0,1-.23-.37.5.5,0,0,1,.1-.28.45.45,0,0,1,.25-.18,1.29,1.29,0,0,1,.43-.07H69Z"/><path class="cls-3" d="M73.37,98.13h.34l.36,0a1.5,1.5,0,0,1,.32.09.41.41,0,0,1,.2.16.59.59,0,0,1,.1.46.54.54,0,0,1-.23.32,1.13,1.13,0,0,1-.42.17,2.32,2.32,0,0,1-.44,0,8.28,8.28,0,0,0-.87,0l-.87,0h-.29a1,1,0,0,1-.3,0,.8.8,0,0,1-.26-.09.58.58,0,0,1-.22-.22.42.42,0,0,1-.05-.39,1.94,1.94,0,0,1,.15-.36,3.91,3.91,0,0,1,.34-.49l.33-.41,1.25-1.64-1,0h-.25l-.28,0a2,2,0,0,1-.26-.06.72.72,0,0,1-.21-.12.57.57,0,0,1-.13-.21.58.58,0,0,1,0-.23.69.69,0,0,1,0-.24.82.82,0,0,1,.12-.2.37.37,0,0,1,.16-.1.65.65,0,0,1,.21-.06,1.9,1.9,0,0,1,.25,0h2.45a.94.94,0,0,1,.34,0,.57.57,0,0,1,.28.14.51.51,0,0,1,.14.34.7.7,0,0,1,0,.29,1,1,0,0,1-.11.28,2.11,2.11,0,0,1-.18.27,2.56,2.56,0,0,1-.2.26l-1.55,2Z"/><path class="cls-4" d="M89.55,61.31a25.29,25.29,0,0,1,2.57-.49l-.53.07.4,0a1.58,1.58,0,0,0,.77-.17,1.5,1.5,0,0,0,.64-.41A2,2,0,0,0,94,58.84a2,2,0,0,0-.59-1.41l-.4-.32a2,2,0,0,0-1-.27,29.43,29.43,0,0,0-3.5.61,2.09,2.09,0,0,0-1.2.92,1.66,1.66,0,0,0-.24.75,1.56,1.56,0,0,0,0,.8A2,2,0,0,0,88,61.11a2.06,2.06,0,0,0,1.54.2Z"/><path class="cls-4" d="M91.05,59.3l.14-.11-.41.31a1.8,1.8,0,0,1,.4-.23l-.48.2a1.91,1.91,0,0,1,.47-.12l-.53.07a1.62,1.62,0,0,1,.44,0,1.48,1.48,0,0,0,.77-.18,1.41,1.41,0,0,0,.64-.41,2.29,2.29,0,0,0,.59-1.41c0-.18,0-.36-.07-.54a2.08,2.08,0,0,0-.52-.88l-.4-.31a2,2,0,0,0-1-.27,1.88,1.88,0,0,0-.41,0c-.23,0-.48.05-.71.1l-.2.06c-.22.07-.43.17-.64.26l-.18.1a3.82,3.82,0,0,0-.72.55,1.41,1.41,0,0,0-.41.64,1.48,1.48,0,0,0-.18.77,1.46,1.46,0,0,0,.18.77,1.41,1.41,0,0,0,.41.64l.4.32a2,2,0,0,0,1,.27l.53-.07a2.06,2.06,0,0,0,.89-.52Z"/><path class="cls-5" d="M81.18,54a9.56,9.56,0,0,0-.26,1.18,13.68,13.68,0,0,0-.18,1.68,2,2,0,0,0,3,1.73,3.81,3.81,0,0,0,.61-.37A5.66,5.66,0,0,0,86,56.58a7.15,7.15,0,0,0,.52-1.08,1.52,1.52,0,0,0,0-.79,1.53,1.53,0,0,0-.23-.75,1.55,1.55,0,0,0-.52-.56,1.45,1.45,0,0,0-.68-.36,2.07,2.07,0,0,0-1.54.2l-.4.32a2,2,0,0,0-.52.88v0l.2-.48a3.37,3.37,0,0,1-.47.8l.32-.4a4.37,4.37,0,0,1-.68.68l.4-.31a4,4,0,0,1-.66.41l3,1.72c0-.31,0-.62.07-.93l-.07.53A10.73,10.73,0,0,1,85,55.1a1.56,1.56,0,0,0,0-.8,1.62,1.62,0,0,0-.24-.74,1.58,1.58,0,0,0-.52-.57,1.53,1.53,0,0,0-.68-.35,2,2,0,0,0-1.54.2A2.11,2.11,0,0,0,81.18,54Z"/><path class="cls-3" d="M84,59c-1.43-.59-1.71-2.31-1.79-3.69a3.74,3.74,0,0,1,.33-2c0-.05.21-.25,0-.16s0,.06,0,.17a5.29,5.29,0,0,1,.32.5,5.1,5.1,0,0,1,.44,1.08c.15.52,1,.43,1-.15a2.06,2.06,0,0,1,.13-.92,2.63,2.63,0,0,1,.21-.41,1.71,1.71,0,0,1,.11-.14c0-.05.21-.17.09-.12h-.26c-.09-.11-.12-.12-.08,0s0,.08,0,.12.06.2.08.3a5.31,5.31,0,0,1,.12.6,6.41,6.41,0,0,1,0,1.24h1A3.94,3.94,0,0,1,86,54.07a3,3,0,0,1,.23-.56,2.28,2.28,0,0,1,.17-.3c.18-.28-.09,0,0-.1a3.32,3.32,0,0,0,.14.49c0,.21.08.42.1.63a6.28,6.28,0,0,1,0,1.37A3.5,3.5,0,0,1,84,58.83a.52.52,0,0,0-.5.51.5.5,0,0,0,.51.49c2.41-.34,3.71-2.67,3.68-4.95A7.61,7.61,0,0,0,87.41,53c-.15-.55-.64-1.1-1.27-.88s-.82.91-1,1.39a4.63,4.63,0,0,0-.26,1.81.5.5,0,0,0,1,0,7.35,7.35,0,0,0-.15-1.87c-.1-.47-.22-1.23-.81-1.33s-1,.58-1.21,1a3.13,3.13,0,0,0-.32,1.56l1-.14a5.73,5.73,0,0,0-.67-1.52c-.24-.4-.56-.88-1.07-.92-1-.09-1.34,1.64-1.38,2.38a8.43,8.43,0,0,0,.4,3.12,3.58,3.58,0,0,0,1.9,2.2.51.51,0,0,0,.68-.19A.5.5,0,0,0,84,59Z"/><path class="cls-3" d="M83.4,60q1.35,7.92,3.45,15.7a.51.51,0,0,0,1-.28q-2.1-7.76-3.45-15.7c-.11-.63-1.07-.35-1,.28Z"/><path class="cls-3" d="M88.87,60.83a5.77,5.77,0,0,1-.47-2.69,5.92,5.92,0,0,1,.25-1.32,4.49,4.49,0,0,1,.23-.61c.07-.15.18-.5.31-.58l-.25.07h0l-.23-.13s0,.07,0,.12,0,.21.08.31.09.42.13.63c.09.42.17.84.24,1.27a.5.5,0,0,0,.55.35.51.51,0,0,0,.43-.5,3.66,3.66,0,0,1,1.15-2.3l-.84-.21A3.89,3.89,0,0,1,90.63,58l1,.26a3.58,3.58,0,0,1,1.14-2.14c.06,0,0-.08,0,0s.06.19.08.28a2.75,2.75,0,0,1,.05.57,3.47,3.47,0,0,1-.25,1.19A4.6,4.6,0,0,1,91.05,60a8.32,8.32,0,0,1-1.11.66c-.19.1-.38.18-.58.27L89,61.1l-.15,0c-.09,0-.09,0,0,0l.22.13,0,0c-.44-.48-1.13.24-.7.71s.86.15,1.25,0a12.67,12.67,0,0,0,1.34-.64,6.42,6.42,0,0,0,2.14-1.94,4.4,4.4,0,0,0,.79-2.6,2.33,2.33,0,0,0-.34-1.32,1,1,0,0,0-1.31-.22c-.94.52-1.3,1.78-1.58,2.73-.18.62.77.87,1,.26A4.84,4.84,0,0,0,91.47,55a.51.51,0,0,0-.84-.21,4.72,4.72,0,0,0-1.43,3l1-.14c-.09-.51-.18-1-.29-1.52a2.38,2.38,0,0,0-.42-1.22c-.83-.8-1.46.78-1.67,1.34a6.66,6.66,0,0,0,.1,4.89.52.52,0,0,0,.62.34.51.51,0,0,0,.35-.62Z"/><path class="cls-3" d="M88,61.56q-2.39,7.77-4.24,15.67a.5.5,0,0,0,1,.26q1.85-7.9,4.24-15.67c.19-.62-.78-.87-1-.26Z"/><path class="cls-3" d="M86.23,69.74a6,6,0,0,0-1.14-1.47,2.84,2.84,0,0,0-1.65-1,1.19,1.19,0,0,0-1.09,1.21,2.71,2.71,0,0,0,.51,1.8,1.55,1.55,0,0,0,1.67.66,5,5,0,0,0,1.57-1,5.1,5.1,0,0,1,1.74-.8c.45-.09,1.11.07.89.67s-.94.66-1.45.64a2,2,0,0,1-1.51-.69.5.5,0,0,0-.68-.17.48.48,0,0,0-.17.68A3.1,3.1,0,0,0,88,71.45a2.21,2.21,0,0,0,1.48-.92,1.55,1.55,0,0,0,0-1.68c-.84-1.23-2.59-.52-3.59.07a13.9,13.9,0,0,1-1.52,1c-.58.25-.91-.33-1-.82,0-.15-.15-.73,0-.83s.47.27.58.35a5.35,5.35,0,0,1,1.37,1.62c.31.56,1.17,0,.85-.52Z"/><path class="cls-6" d="M23.76,60.09a5.83,5.83,0,0,0,.67,4.69A12.44,12.44,0,0,0,27.56,68a1.58,1.58,0,0,0,2,.12,1.56,1.56,0,0,0,.4-2,6.59,6.59,0,0,1-.61-4.68l-2.6.69c-.09-.09-.08-.06,0,.09-.06-.11-.06-.08,0,.09s.08.32.12.48c.11.5.21,1,.32,1.49.21,1,.43,1.91.64,2.86a1.56,1.56,0,0,0,2.83.37,7.27,7.27,0,0,0,.86-2.73c.06-.42.12-.85.2-1.28a4.71,4.71,0,0,1,.16-.62s.1-.29.05-.19.13-.24.13-.24l-2.9-.79.24,4.46a1.57,1.57,0,0,0,1.34,1.52,1.59,1.59,0,0,0,1.71-1.11,33.59,33.59,0,0,0,1.92-6.66,1.57,1.57,0,0,0-2.6-1.51A9.25,9.25,0,0,0,30,60.61l2.84.37c.07.33,0-.18,0,0s-.08.13,0,0c-.18.21.22-.16,0,0a1.48,1.48,0,0,1,.27-.16c-.24.1.22,0,.23,0-.22,0,0,0,.12,0h.15c.11,0,.1,0,0,0,.15-.07.13.14,0,0,0,0-.15-.22-.13-.22a3,3,0,0,1,.1.38,2.79,2.79,0,0,1,.07.4c0-.23,0,.12,0,.16a6.76,6.76,0,0,1,0,.9c0,.08,0,.25,0,.08,0,.16-.06.32-.1.48A3.64,3.64,0,0,1,33,64.22l-.23.33c-.06.09-.06.09,0,0l-.1.12c-.18.19-.36.37-.55.54s.19-.1-.17.14l-.26.17c-.13.08-.26.16-.4.23l-.23.11-.25.09-.37.11-.38.08c-.32.06.17,0-.19,0a1.57,1.57,0,0,0-1.53,1.34,1.59,1.59,0,0,0,1.11,1.71,6,6,0,0,0,6.56-2,8.08,8.08,0,0,0,1-7.75,1.6,1.6,0,0,0-1.91-1.08A1.56,1.56,0,0,0,34,60.3a8,8,0,0,1,.38,1.44c0,.07,0,.25,0,.09a2.73,2.73,0,0,1,0,.41,4.69,4.69,0,0,1,0,.75c0,.1,0,.21,0,.32,0-.21,0,.09,0,.16a5.71,5.71,0,0,1-.19.71c0,.1-.07.21-.11.31.08-.19-.06.09-.09.15a4.05,4.05,0,0,1-.36.59c.15-.21-.16.16-.22.22l-.26.25c-.18.16.17-.12,0,0a3.77,3.77,0,0,1-.54.34s-.37.18-.2.11-.12,0-.15,0a6.09,6.09,0,0,1-.61.17c-.28.07.1,0-.07,0h-.28c-.12,0-.23,0-.35,0,.15,0,.16,0,0,0a4,4,0,0,1-.67-.2c-.14,1-.28,2-.41,3a7.46,7.46,0,0,0,6.9-7.2,6,6,0,0,0-.51-2.86,3,3,0,0,0-2.65-1.49,3.5,3.5,0,0,0-3.73,4.11,1.58,1.58,0,0,0,2.84.37A6,6,0,0,1,34,60.6l-2.59-1.51a33.53,33.53,0,0,1-1.93,6.65l3.05.42c-.08-1.49-.15-3-.23-4.46a1.55,1.55,0,0,0-2.89-.78,8.13,8.13,0,0,0-.81,2.76c-.06.42-.12.85-.21,1.27-.05.21-.1.41-.17.62,0,0-.12.28-.07.18s-.14.24-.14.23l2.84.38-.72-3.26A7.27,7.27,0,0,0,29,60a1.57,1.57,0,0,0-2.6.69,9.85,9.85,0,0,0,.93,7.06l2.43-1.88c-.46-.37-.92-.74-1.36-1.14a7.94,7.94,0,0,1-1.1-1.2,3.43,3.43,0,0,1-.61-1.34s-.06-.38,0-.17c0-.14,0-.28,0-.42s0-.37,0-.16a2.72,2.72,0,0,1,.13-.49A1.56,1.56,0,0,0,25.67,59a1.6,1.6,0,0,0-1.91,1.08Z"/><path class="cls-7" d="M25.91,73.8H26l-.42,0,.27.07-.37-.15a2.43,2.43,0,0,1,.44.26l-.32-.24c.31.23.6.49.91.72a4,4,0,0,0,1.09.57,8.14,8.14,0,0,0,1.75.43,1.64,1.64,0,0,0,1.19-.16,1.54,1.54,0,0,0,.72-.92,1.57,1.57,0,0,0-.16-1.2,1.5,1.5,0,0,0-.93-.71A8.34,8.34,0,0,1,28.37,72l.37.15a2.88,2.88,0,0,1-.7-.4l.32.25c-.33-.26-.64-.54-1-.78a3,3,0,0,0-1.47-.51,1.55,1.55,0,0,0-1.55,1.56,1.54,1.54,0,0,0,.45,1.09l.32.25a1.52,1.52,0,0,0,.78.21Z"/><path class="cls-7" d="M32.35,75.8a8,8,0,0,0,2.7-1.1,8.87,8.87,0,0,0,2.33-2.24,1.55,1.55,0,0,0-1.76-2.28,1.79,1.79,0,0,0-.92.71l-.12.15.24-.31a6.6,6.6,0,0,1-1.21,1.21l.31-.24a7.1,7.1,0,0,1-1.48.87l.37-.16a7.3,7.3,0,0,1-1.28.4,1.58,1.58,0,0,0-.93.71,1.53,1.53,0,0,0,.56,2.12,1.64,1.64,0,0,0,1.19.16Z"/><path class="cls-3" d="M27.57,60.5A1.59,1.59,0,0,1,30.32,60a.6.6,0,0,0,.92-.13,2.14,2.14,0,0,1,2.1-.88A2.37,2.37,0,0,1,35.15,61a6.83,6.83,0,0,1,.28,3.35A5,5,0,0,1,33.69,67C32,68.57,30,69.86,27.56,68.94a7.77,7.77,0,0,1-4.41-4.49,5,5,0,0,1,.09-3.58c.19-.41.61-1.29,1.15-1.28.7,0,.93,1,1.06,1.53a.58.58,0,0,0,1.12-.32c-.3-1.22-1.2-2.81-2.73-2.29-1.23.42-1.89,2.14-2.07,3.3-.44,2.94,1.31,5.61,3.62,7.26a6.63,6.63,0,0,0,4.32,1.36,7.34,7.34,0,0,0,3.9-1.84,7.74,7.74,0,0,0,2.81-3.47,7.56,7.56,0,0,0-.15-4.49,3.51,3.51,0,0,0-2.79-2.76,3.33,3.33,0,0,0-3.26,1.45l.92-.12a2.73,2.73,0,0,0-4.58.72c-.29.69.72,1.27,1,.58Z"/><path class="cls-3" d="M27,64.4a.75.75,0,0,0,0-1.5.75.75,0,0,0,0,1.5Z"/><path class="cls-3" d="M31.74,63.76a.75.75,0,0,0,0-1.5.75.75,0,0,0,0,1.5Z"/><path class="cls-3" d="M28.44,65.79a8.47,8.47,0,0,0,2.84.21.61.61,0,0,0,.58-.59.6.6,0,0,0-.59-.58,7.39,7.39,0,0,1-1.33,0l-.31,0h-.1q.09,0,0,0l-.18,0-.65-.13a.58.58,0,1,0-.29,1.12Z"/><path class="cls-3" d="M29.06,70.19a7.89,7.89,0,0,0,.06,3.92.58.58,0,0,0,.72.4.58.58,0,0,0,.39-.72,6.74,6.74,0,0,1,0-3.31.58.58,0,0,0-1.13-.29Z"/><path class="cls-3" d="M29.63,73.08a9.28,9.28,0,0,0-2.86-2.2c-1.12-.55-2.51-1.06-3.71-.48A2,2,0,0,0,22,71.7a2.46,2.46,0,0,0,.45,1.85,5.68,5.68,0,0,0,2.73,2.15,5.57,5.57,0,0,0,4.24-.19.58.58,0,0,0-.59-1,4.41,4.41,0,0,1-5-1.11c-.49-.55-1.1-1.54-.17-2s2,.16,2.72.54a8.49,8.49,0,0,1,2.47,2c.5.56,1.31-.27.82-.83Z"/><path class="cls-3" d="M31.18,74.28a4.75,4.75,0,0,1,1.63-2.1A12.58,12.58,0,0,1,34,71.34a4.75,4.75,0,0,1,1.3-.68c.89-.22.59,1.32.41,1.75a3.44,3.44,0,0,1-1.9,1.83,6.22,6.22,0,0,1-3.6.16c-.74-.16-1,1-.3,1.12a7.49,7.49,0,0,0,4.12-.12A4.7,4.7,0,0,0,36.75,73c.46-1,.64-2.71-.51-3.35a2.08,2.08,0,0,0-2,.23,14.34,14.34,0,0,0-1.55,1A6.6,6.6,0,0,0,30.05,74a.58.58,0,0,0,1.13.3Z"/><path class="cls-3" d="M32,27.23a3.54,3.54,0,0,1,2.49,1,3.39,3.39,0,0,1,.74,2.64,3.42,3.42,0,0,1-.88,2.22,3.11,3.11,0,0,1-2.32.79h-.74a4.26,4.26,0,0,1-.63,0,3.39,3.39,0,0,1-.61-.15,4.23,4.23,0,0,1-.67-.34,2.19,2.19,0,0,1-.59-.54,3.13,3.13,0,0,1-.37-.7,3,3,0,0,1-.2-.78,5.12,5.12,0,0,1-.06-.78,3.78,3.78,0,0,1,.29-1.52,2.94,2.94,0,0,1,.8-1.09,3.13,3.13,0,0,1,1.22-.62A4.49,4.49,0,0,1,32,27.23ZM38.62,39a1.07,1.07,0,0,1,.44.12.55.55,0,0,1,.28.36.59.59,0,0,1-.41.8,1.38,1.38,0,0,1-.39.09l-.38,0h-8.1l-.7,0a.82.82,0,0,1-.56-.24.9.9,0,0,1-.26-.59c0-.18,0-.38,0-.6v-.7a2.78,2.78,0,0,1,0-.41.87.87,0,0,1,.17-.42,1.06,1.06,0,0,1,.59-.29,4.56,4.56,0,0,1,.72-.06H37.5V36.4H29.34a1.07,1.07,0,0,1-.25,0l-.25-.07a.31.31,0,0,1-.2-.16.8.8,0,0,1-.11-.69.48.48,0,0,1,.14-.2l.23-.12.24-.07.22,0,.25,0h8a2.61,2.61,0,0,1,1.25.24.87.87,0,0,1,.43.81v1.25a1.07,1.07,0,0,1-.09.43.94.94,0,0,1-.35.37,1,1,0,0,1-.44.14h-8V39Zm-5.2-8a1.65,1.65,0,0,0-.18-1.07,1.39,1.39,0,0,0-.78-.67,2.43,2.43,0,0,0-.73-.11,2.13,2.13,0,0,0-.76.13,1.66,1.66,0,0,0-.63.42,1.33,1.33,0,0,0-.32.73A1.57,1.57,0,0,0,30,31a1.31,1.31,0,0,0,.21.56,1.4,1.4,0,0,0,.47.43,1.89,1.89,0,0,0,.77.22,3.31,3.31,0,0,0,.63,0,1.61,1.61,0,0,0,.58-.16,1.23,1.23,0,0,0,.46-.36,1.52,1.52,0,0,0,.27-.6Zm5.84,1.09v1.3a1.16,1.16,0,0,1-.24.73,1,1,0,0,1-1.18.2.89.89,0,0,1-.41-.48,1.48,1.48,0,0,1-.09-.4V28.62a1.72,1.72,0,0,1,0-.35,1.3,1.3,0,0,1,.13-.48.72.72,0,0,1,.64-.38.91.91,0,0,1,.88.24.71.71,0,0,1,.13.24c0,.08,0,.17.08.25a1.5,1.5,0,0,1,.05.42,2.81,2.81,0,0,1,0,.43v1.3h.24l.37,0,.37,0,.26,0a.87.87,0,0,1,.44.18.49.49,0,0,1,.16.3,1.22,1.22,0,0,1,0,.4.82.82,0,0,1-.09.4.74.74,0,0,1-.58.36l-.85.05Z"/><path class="cls-3" d="M51.82,33.92a3.78,3.78,0,0,1,.56.08,1.22,1.22,0,0,1,.5.24.69.69,0,0,1,.17.17.6.6,0,0,1,.05.24,1.63,1.63,0,0,1-.05.36.68.68,0,0,1-.15.27.76.76,0,0,1-.33.18,2.08,2.08,0,0,1-.39.08l-.33,0H43.17c-.25,0-.5,0-.76,0a1.09,1.09,0,0,1-.67-.24.78.78,0,0,1-.36-.62.68.68,0,0,1,.15-.42.74.74,0,0,1,.41-.27,2,2,0,0,1,.68-.1h.72l.67,0h1.78v-.87H42.7a.85.85,0,0,1-.56-.27.91.91,0,0,1-.27-.61c0-.19,0-.43,0-.71s0-.49,0-.64,0-.28,0-.49a.81.81,0,0,1,.16-.5,1,1,0,0,1,.59-.31,4.56,4.56,0,0,1,.72-.06h2l1.1,0h2.13l.71,0h1.31a.85.85,0,0,1,0-.13c0-.07,0-.15,0-.23a1.62,1.62,0,0,0,0-.21c0-.07,0-.1,0-.1H44.05l-.69,0h-.67a1.15,1.15,0,0,1-.26,0,1.25,1.25,0,0,1-.27-.1.58.58,0,0,1-.21-.2.82.82,0,0,1-.07-.31c0-.1,0-.21,0-.3a.44.44,0,0,1,.09-.27.67.67,0,0,1,.2-.21.52.52,0,0,1,.26-.1,1.66,1.66,0,0,0,.28-.05.76.76,0,0,1,.26,0,1.13,1.13,0,0,0,.26,0l.28,0h.28c.33,0,.75,0,1.26,0H50.9a2.33,2.33,0,0,1,1.24.27.93.93,0,0,1,.44.87v1.5a2.38,2.38,0,0,1,0,.38,1.69,1.69,0,0,1-.09.34.42.42,0,0,1-.21.24,1.21,1.21,0,0,1-.55.14H43.79v.64h8.06a1.07,1.07,0,0,1,.45.12.58.58,0,0,1,.27.38.64.64,0,0,1-.42.86,1.07,1.07,0,0,1-.39.1H48l0,.45v.42h3Zm-.94,2.45a2.17,2.17,0,0,1,1,.2.65.65,0,0,1,.36.58v1.27c0,.16,0,.32,0,.5v.5a2.93,2.93,0,0,1,0,.34.83.83,0,0,1-.27.54.84.84,0,0,1-.6.21,1.14,1.14,0,0,1-.33,0,.69.69,0,0,1-.35-.19.72.72,0,0,1-.17-.29,1.21,1.21,0,0,1-.08-.34,2.19,2.19,0,0,1,0-.36s0-.12,0-.23,0-.23,0-.35,0-.23,0-.33a1.06,1.06,0,0,0,0-.23l-.27,0-.8,0H42.74l-.12,0a1.12,1.12,0,0,1-.24-.1,1.18,1.18,0,0,1-.24-.17.48.48,0,0,1-.12-.29A1,1,0,0,1,42,37a.81.81,0,0,1,.19-.35.74.74,0,0,1,.41-.27l.24,0Z"/><path class="cls-3" d="M54.18,32.85a2,2,0,0,1,0-.29,2.45,2.45,0,0,1,0-.27,2,2,0,0,0,0-.25.33.33,0,0,1,0-.2v-.23l0-2.46v-.46a.53.53,0,0,0,0-.16.49.49,0,0,1,0-.15.3.3,0,0,1,.11-.25.93.93,0,0,1,.26-.36.76.76,0,0,1,.2-.08.67.67,0,0,1,.24,0l.39-.06a4.53,4.53,0,0,1,.56,0h1.2l.38,0h1a1.1,1.1,0,0,1,.27,0h1l.23.05.21.06a.4.4,0,0,1,.16.08.72.72,0,0,1,.2.14l.16.2a1.08,1.08,0,0,1,.16.5,2.33,2.33,0,0,0-.07.25.67.67,0,0,1-.14.26.49.49,0,0,1-.12.13l-.15.11-.17,0-.19,0a.34.34,0,0,1-.18,0,.64.64,0,0,0-.2,0h-.29l-3,0v2.36H57a2.06,2.06,0,0,0,.44,0h2.58a2.15,2.15,0,0,1,.47.14.46.46,0,0,1,.37.27.64.64,0,0,1,.17.5.63.63,0,0,1-.27.54,1.65,1.65,0,0,1-.64.27,2.12,2.12,0,0,1-.38.08l-.39.07H59a1.94,1.94,0,0,1-.33,0h-2.9a1.78,1.78,0,0,1-.53-.08,1.48,1.48,0,0,1-.48-.13.64.64,0,0,1-.37-.32,2.17,2.17,0,0,1-.1-.21A1.83,1.83,0,0,1,54.18,32.85Zm2.25,6.35h7.83a1.18,1.18,0,0,1,.43.09.59.59,0,0,1,.27.39.57.57,0,0,1-.42.81.79.79,0,0,1-.4.1H55.31a.84.84,0,0,1-.56-.24,1.67,1.67,0,0,1-.18-.28.73.73,0,0,1-.08-.33l-.06-1.36v-.19a1.12,1.12,0,0,1,0-.24.93.93,0,0,1,.21-.42,1.44,1.44,0,0,1,.25-.18,1,1,0,0,1,.34-.1,2.23,2.23,0,0,1,.36,0l.35,0h.73l.54,0h5.85v-.78h-8a.53.53,0,0,0-.23-.06.3.3,0,0,1-.21-.18.67.67,0,0,1-.15-.34,1.08,1.08,0,0,1,0-.36.39.39,0,0,1,.08-.1.52.52,0,0,0,.1-.11.3.3,0,0,1,.1-.07l.11-.06a.63.63,0,0,1,.27-.08h1.69l.85,0h5.6a5.27,5.27,0,0,1,.74.05,1.33,1.33,0,0,1,.51.19.86.86,0,0,1,.45.81v1.33a1.52,1.52,0,0,1,0,.23l-.06.2a1.05,1.05,0,0,1-.37.39,1,1,0,0,1-.43.11l-.21,0H56.43Zm10.18-8.67a.31.31,0,0,1,.17.28,1,1,0,0,1,0,.2,1.64,1.64,0,0,1,0,.22.77.77,0,0,1-.1.42.87.87,0,0,1-.62.35l-.39,0h-1v1.29a1.16,1.16,0,0,1-.24.77.93.93,0,0,1-.75.29H63.5a.33.33,0,0,0-.12,0l-.12-.05a1.38,1.38,0,0,1-.25-.21.57.57,0,0,1-.16-.25,2.32,2.32,0,0,1-.06-.27c0-.06,0-.12,0-.15V28.56a.17.17,0,0,1,0-.12,1,1,0,0,1,0-.22c0-.1,0-.2.06-.28a.73.73,0,0,1,.09-.23.71.71,0,0,1,.1-.14.23.23,0,0,1,.17-.08,1.24,1.24,0,0,1,.2-.1.49.49,0,0,1,.2-.05.9.9,0,0,1,.88.23.84.84,0,0,1,.16.24.59.59,0,0,0,0,.14l.06.14a.51.51,0,0,1,0,.17v.22a.84.84,0,0,1,0,.26,1.37,1.37,0,0,0,0,.19v1.31H65l.21,0h.45a.83.83,0,0,1,.22,0,.72.72,0,0,1,.26,0A.68.68,0,0,1,66.61,30.53Z"/><path class="cls-3" d="M77.47,33.92A3.47,3.47,0,0,1,78,34a1.2,1.2,0,0,1,.51.24.69.69,0,0,1,.17.17.6.6,0,0,1,0,.24,1.63,1.63,0,0,1,0,.36.59.59,0,0,1-.16.27.67.67,0,0,1-.32.18,2,2,0,0,1-.4.08l-.32,0H68.82c-.25,0-.5,0-.76,0a1.07,1.07,0,0,1-.67-.24.79.79,0,0,1-.37-.62.63.63,0,0,1,.16-.42.76.76,0,0,1,.4-.27,2.06,2.06,0,0,1,.69-.1H69l.67,0h1.78v-.87H68.35a.9.9,0,0,1-.57-.27,1,1,0,0,1-.26-.61,6.68,6.68,0,0,1,0-.71c0-.27,0-.49,0-.64s0-.28,0-.49a.81.81,0,0,1,.16-.5,1,1,0,0,1,.59-.31,4.37,4.37,0,0,1,.72-.06h2l1.1,0h2.12l.72,0h1.31a.85.85,0,0,1,0-.13c0-.07,0-.15,0-.23a1.62,1.62,0,0,0,0-.21c0-.07,0-.1,0-.1H69.7l-.69,0h-.67a1.09,1.09,0,0,1-.26,0,1.08,1.08,0,0,1-.27-.1.58.58,0,0,1-.21-.2.82.82,0,0,1-.07-.31c0-.1,0-.21,0-.3a.44.44,0,0,1,.09-.27.67.67,0,0,1,.2-.21.53.53,0,0,1,.25-.1,1.77,1.77,0,0,0,.29-.05.76.76,0,0,1,.26,0,1,1,0,0,0,.25,0l.28,0h.28c.33,0,.76,0,1.27,0h5.85a2.37,2.37,0,0,1,1.25.27.92.92,0,0,1,.43.87v1.17c0,.09,0,.2,0,.33a2.38,2.38,0,0,1,0,.38,1.69,1.69,0,0,1-.09.34.45.45,0,0,1-.21.24,1.21,1.21,0,0,1-.55.14H69.44l0,.64h8.07a1.07,1.07,0,0,1,.45.12.66.66,0,0,1,.27.38.64.64,0,0,1-.42.86,1.12,1.12,0,0,1-.39.1H73.68c0,.15,0,.3,0,.45s0,.29,0,.42h3Zm-.94,2.45a2.15,2.15,0,0,1,1,.2.65.65,0,0,1,.36.58v1s0,.16,0,.31,0,.32,0,.5v.5a2.44,2.44,0,0,1,0,.34.82.82,0,0,1-.26.54.88.88,0,0,1-.6.21,1.27,1.27,0,0,1-.34,0,.66.66,0,0,1-.34-.19.88.88,0,0,1-.18-.29,2.84,2.84,0,0,1-.08-.34c0-.12,0-.24,0-.36s0-.12,0-.23,0-.23,0-.35,0-.23,0-.33,0-.19,0-.23l-.27,0-.81,0H68.38l-.12,0A1.07,1.07,0,0,1,68,38a1.18,1.18,0,0,1-.24-.17.49.49,0,0,1-.13-.29,1.27,1.27,0,0,1,0-.48,1,1,0,0,1,.2-.35.71.71,0,0,1,.41-.27l.24,0Z"/><path class="cls-3" d="M85.76,28.09a4.52,4.52,0,0,1,1.12.12,1.15,1.15,0,0,1,.74.57.88.88,0,0,1-.72,1.39,5.65,5.65,0,0,1-.89.08l-1.31,0c0,.18,0,.37,0,.57v.54c0,.17,0,.31,0,.43v2c0,.09,0,.2,0,.35s0,.25,0,.33.2.21.35.37.27.3.35.41l.33.4c.12.14.23.29.35.46s.16.2.22.29l.18.26c.2.29.41.6.62.94a3.14,3.14,0,0,1,.43,1,1.1,1.1,0,0,1,0,.48.7.7,0,0,1-.23.44.91.91,0,0,1-.61.24,1.29,1.29,0,0,1-.7-.2,2.27,2.27,0,0,1-.55-.42c-.2-.21-.39-.44-.57-.67l-.51-.69c-.12-.17-.24-.34-.37-.5s-.26-.33-.4-.49a.19.19,0,0,0-.07-.08h0s0,0,0,0a2.35,2.35,0,0,1-.19.25,1.44,1.44,0,0,0-.18.25,2.09,2.09,0,0,0-.23.29l-.2.3-.45.66a4.31,4.31,0,0,1-.51.62,1.93,1.93,0,0,1-1.3.69.94.94,0,0,1-.3-.05.69.69,0,0,1-.5-.45,1.17,1.17,0,0,1-.09-.59,1.84,1.84,0,0,1,.16-.56,4.16,4.16,0,0,1,.28-.51l.34-.48.22-.29c.06-.1.13-.19.18-.29s.23-.35.39-.57l.5-.64.45-.57.29-.36V30.22H80.62a1,1,0,0,1-.35,0,1,1,0,0,1-.82-.68.92.92,0,0,1,.13-.9,1.15,1.15,0,0,1,.77-.48l.16,0h5.25Zm5.39,10.79c0,.13,0,.25-.05.37a1.29,1.29,0,0,1-.08.38,1.17,1.17,0,0,1,0,.11.76.76,0,0,1,0,.11.88.88,0,0,1-1.11.47.82.82,0,0,1-.41-.19.83.83,0,0,1-.22-.33,3.31,3.31,0,0,1-.11-.39,1.48,1.48,0,0,1,0-.34V28.78a3.4,3.4,0,0,1,0-.45,1.76,1.76,0,0,1,.1-.41.83.83,0,0,1,.17-.31.82.82,0,0,1,.37-.21,1.87,1.87,0,0,1,.42,0,.89.89,0,0,1,.5.15.77.77,0,0,1,.33.42,2.16,2.16,0,0,1,.16.71l0,.73v.08c0,.83,0,1.67,0,2.53s0,1.68,0,2.45V38.3a2.81,2.81,0,0,0,0,.29A2.81,2.81,0,0,1,91.15,38.88Z"/></g></g></svg>